<REAPER_PROJECT 0.1 "6.68/win64" 1715450086
  <NOTES 0 2
  >
  RIPPLE 0
  GROUPOVERRIDE 0 0 0
  AUTOXFADE 129
  ENVATTACH 3
  POOLEDENVATTACH 0
  MIXERUIFLAGS 11 52
  PEAKGAIN 1
  FEEDBACK 0
  PANLAW 1
  PROJOFFS 0 -2 0
  MAXPROJLEN 0 600
  GRID 3199 8 1 8 1 0 0 0
  TIMEMODE 1 5 -1 30 0 0 -1
  VIDEO_CONFIG 0 0 256
  PANMODE 3
  CURSOR 0
  ZOOM 12.85911208809578 0 0
  VZOOMEX 3 62
  USE_REC_CFG 0
  RECMODE 1
  SMPTESYNC 0 30 100 40 1000 300 0 0 1 0 0
  LOOP 0
  LOOPGRAN 0 4
  RECORD_PATH "" ""
  <RECORD_CFG
    ZXZhdxgAAA==
  >
  <APPLYFX_CFG
  >
  RENDER_FILE "C:\Users\nigga\reaper-media\dj-ernia\mp3\drown-me-slowly-click.mp3"
  RENDER_FMT 0 2 44100
  RENDER_1X 0
  RENDER_RANGE 1 0 0 18 1000
  RENDER_RESAMPLE 3 0 1
  RENDER_ADDTOPROJ 0
  RENDER_STEMS 0
  RENDER_DITHER 0
  TIMELOCKMODE 0
  TEMPOENVLOCKMODE 1
  ITEMMIX 1
  DEFPITCHMODE 589824 0
  TAKELANE 1
  SAMPLERATE 44100 0 0
  <RENDER_CFG
    bDNwbUABAAAAAAAACgAAAP////8EAAAAQAEAAAAAAAA=
  >
  LOCK 1
  <METRONOME 6 2
    VOL 3.981072 15.848932
    FREQ 800 1600 1
    BEATLEN 4
    SAMPLES "" ""
    PATTERN 2863311530 2863311529
    MULT 1
  >
  GLOBAL_AUTO -1
  TEMPO 120 4 4
  PLAYRATE 1 1 0.25 4
  SELECTION 226.76000002311173 208.21000002122429
  SELECTION2 226.76000002311173 208.21000002122429
  MASTERAUTOMODE 0
  MASTERTRACKHEIGHT 0 0
  MASTERPEAKCOL 16576
  MASTERMUTESOLO 0
  MASTERTRACKVIEW 1 0.6667 0.5 0.5 0 -1 0 0 0 0 0 0 0
  MASTERHWOUT 0 0 1 0 0 0 0 -1
  MASTER_NCH 2 2
  MASTER_VOLUME 1 0 -1 -1 1
  MASTER_PANMODE 3
  MASTER_FX 1
  MASTER_SEL 0
  <MASTERFXLIST
    WNDRECT 513 220 716 200
    SHOW 0
    LASTSEL 1
    DOCKED 0
    BYPASS 0 0 0
    <VST "VST: ReaComp (Cockos)" reacomp.dll 0 "" 1919247213<5653547265636D726561636F6D700000> ""
      bWNlcu9e7f4EAAAAAQAAAAAAAAACAAAAAAAAAAQAAAAAAAAACAAAAAAAAAACAAAAAQAAAAAAAAACAAAAAAAAAFwAAAAAAAAAAAAQAA==
      776t3g3wrd4AAIA/ED74PKabxDsK16M8AAAAAAAAAAAAAIA/AAAAAAAAAAAAAAAAnNEHMwAAgD8AAAAAzcxMPQAAAAAAAIA/AAAAAAAAgD4AAAAAAAAAAAAAAAA=
      AAAQAAAA
    >
    FLOATPOS 0 0 0 0
    FXID {EFEEF7DF-5D65-4C78-9D1E-87E9ABDB7E26}
    WAK 0 0
    BYPASS 0 0 0
    <JS sstillwell/eventhorizon2 ""
      0 -0.2 20 - - - - - - - - - - - - - - - - - - - - - - - - - - - - - - - - - - - - - - - - - - - - - - - - - - - - - - - - - - - - - 
    >
    FLOATPOS 0 0 0 0
    FXID {9FA5ADBE-9691-4800-8E8A-1D8ECEEE6DBD}
    WAK 0 0
  >
  <MASTERPLAYSPEEDENV
    EGUID {B2EB1E72-46F8-4961-9E23-80E92A315D4E}
    ACT 0 -1
    VIS 0 1 1
    LANEHEIGHT 0 0
    ARM 0
    DEFSHAPE 0 -1 -1
  >
  <TEMPOENVEX
    EGUID {06056238-6ED1-419D-88FB-4F5B61C2491B}
    ACT 1 -1
    VIS 1 0 1
    LANEHEIGHT 0 0
    ARM 0
    DEFSHAPE 1 -1 -1
    PT 0.000000000000 101.0000000000 1 262148 0 1
    PT 4.752475247525 100.5934348504 1
    PT 23.839207924020 100.5934348504 1
    PT 26.225049508582 103.2280044610 1
    PT 28.550000002908 103.4482758515 1
    PT 30.870000003145 102.1276595641 1
    PT 33.220000003384 103.0042918350 1
    PT 35.550000003621 107.1428571319 1
    PT 37.790000003849 104.3478260763 1
    PT 40.090000004084 107.1428571319 1
    PT 42.330000004312 102.5641025537 1
    PT 44.670000004550 104.3478260763 1
    PT 46.970000004785 103.8961038855 1
    PT 49.280000005020 104.3478260763 1
    PT 51.580000005254 103.0042918350 1
    PT 53.910000005492 105.7268722359 1
    PT 56.180000005723 103.8961038855 1
    PT 58.490000005958 105.2631578840 1
    PT 60.770000006190 104.8034934391 1
    PT 63.060000006424 104.3478260763 1
    PT 65.360000006658 103.8961038855 1
    PT 67.670000006893 104.8034934391 1
    PT 69.960000007126 104.3478260763 1
    PT 72.260000007361 105.2631578840 1
    PT 74.540000007593 103.7807520134 1
    PT 76.852567563173 111.2720318518 1
    PT 79.009443788095 102.6786571031 1
    PT 81.346833142136 107.5836884934 1
    PT 83.577654592496 104.2632042806 1
    PT 85.879521311977 107.2421529744 1
    PT 88.117447289250 104.2632042806 1
    PT 90.419314008730 106.9027790726 1
    PT 91.541829260823 108.9718651191 1
    PT 92.643030932179 104.2632042806 1
    PT 94.944897651660 105.5664943341 1
    PT 97.218346263492 104.9108018228 1
    PT 99.506003929149 107.5836884934 1
    PT 101.736825379509 105.8974237835 1
    PT 104.003169464430 112.2301600895 1
    PT 106.141632064935 104.2632042806 1
    PT 107.292565424675 106.9027790726 1
    PT 108.415080676768 108.6214732699 1
    PT 110.624588546392 105.2376267505 1
    PT 112.905141685137 110.0367367652 1
    PT 115.086231447114 104.9108018228 1
    PT 117.373889112771 109.3245248768 1
    PT 119.569187928572 104.5860005787 1
    PT 121.863950121140 110.0367367652 1
    PT 124.045039883117 105.8974237835 1
    PT 126.311383968038 109.3245248768 1
    PT 128.506682783838 103.6235527206 1
    PT 130.822758557143 106.2304345501 1
    PT 133.081998115152 100.5934348504 1
    PT 145.011206037961 102.5850674530 1
    PT 152.029771389394 101.0407124235 1
    PT 159.155611882107 101.4452798406 1
    PT 166.253034267172 101.4452798406 1
    PT 170.984649190548 100.9903682718 1
    PT 180.490506198774 102.3564628540 1
    PT 185.180000018863 103.0042918350 1
    PT 189.840000019338 102.5641025537 1
    PT 192.180000019576 105.7268722359 1
    PT 194.450000019808 103.0042918350 1
    PT 196.780000020045 105.2631578840 1
    PT 199.060000020277 104.3478260763 1
    PT 201.360000020512 106.1946902547 1
    PT 203.620000020742 103.8961038855 1
    PT 205.930000020977 105.2631578840 1
    PT 208.210000021210 100.5934348504 1
    PT 210.595841605771 107.4230002184 1
    PT 212.830000021680 100.5934348504 1
    PT 215.215841606242 106.4698906279 1
    PT 217.470000022153 102.5641025537 1
    PT 219.810000022391 107.1428571319 1
    PT 222.050000022619 102.5641025537 1
    PT 224.390000022857 101.2658227745 1
    PT 226.760000023099 100.5934348504 1 0 1
  >
  MARKER 1 4.75247524752475 "" 0 0 1 R {A56727B5-890B-4273-8AA3-347D8ED68FA7}
  MARKER 2 23.83920792401975 "" 0 0 1 R {70A57F8A-9FED-4598-AE77-2BF0C397AE61}
  MARKER 3 37.79000000385078 "" 0 0 1 R {15CF753D-BF72-442A-A18B-7601D42F083C}
  MARKER 4 42.33000000431483 "" 0 0 1 R {1C20CF13-392A-47F4-B416-6E8A9BB3D5D7}
  MARKER 5 60.77000000619514 "" 0 0 1 R {51B5358E-A9E7-4388-9F08-2120781E9AB9}
  MARKER 6 79.00944378810419 "" 0 0 1 R {6200564F-3369-4F35-8E1D-9AC92D371F62}
  MARKER 7 97.21834626350386 "" 0 0 1 R {D476CF3A-189E-4E6F-BE9D-241BF17877CB}
  MARKER 8 115.08623144712415 "" 0 0 1 R {AB5D12B5-4CD4-4582-9476-B259AF040E4A}
  MARKER 9 133.08199811516138 "" 0 0 1 R {8F56A693-6864-4FD9-B4EA-5D6406E7CC6F}
  MARKER 10 152.02977138940329 "" 0 0 1 R {F790BEAD-A4FF-477A-BBBE-529AF0FC3B3E}
  MARKER 11 170.98464919056084 "" 0 0 1 R {797F47A1-CA19-4686-B8B3-9A69AAA0CEA3}
  MARKER 12 189.84000001935217 "" 0 0 1 R {89D8DD1B-6086-4AF7-86AE-A7D5A7954EE4}
  MARKER 13 208.21000002122429 "" 0 0 1 R {F63BCED8-54D8-49A6-8BA8-60F022E179C1}
  <PROJBAY
  >
  <TRACK {FC6D720D-C172-4D42-8FD2-E07238062F25}
    NAME DRUMS
    PEAKCOL 16576
    BEAT -1
    AUTOMODE 0
    VOLPAN 2.51188643150958 0 -1 -1 1
    MUTESOLO 0 0 0
    IPHASE 0
    PLAYOFFS 0 1
    ISBUS 0 0
    BUSCOMP 0 0 0 0 0
    SHOWINMIX 1 0.6667 0.5 1 0.5 0 -1 0
    SEL 0
    REC 0 0 1 0 0 0 0 0
    VU 2
    TRACKHEIGHT 0 0 0 0 0 0
    INQ 0 0 0 0.5 100 0 0 100
    NCHAN 2
    FX 1
    TRACKID {FC6D720D-C172-4D42-8FD2-E07238062F25}
    PERF 0
    MIDIOUT -1
    MAINSEND 1 0
    <ITEM
      POSITION 4.28000000043598
      SNAPOFFS 0
      LENGTH 233.616
      LOOP 1
      ALLTAKES 0
      FADEIN 1 0.01 0 1 0 0 0
      FADEOUT 1 0.01 0 1 0 0 0
      MUTE 0 0
      SEL 0
      IGUID {C1DF1585-4B5A-49A8-867A-8697871F5B85}
      IID 2
      NAME "drown-me-slowly-drums-E minor-103bpm-442hz.m4a"
      VOLPAN 1 0 1 -1
      SOFFS 0
      PLAYRATE 1 1 0 -1 0 0.0025
      CHANMODE 0
      GUID {035E1676-8987-4177-98D9-302C3CE730D6}
      <SOURCE VIDEO
        FLIP 0 1
        FILE "audio-in\drown-me-slowly-drums-E minor-103bpm-442hz.m4a"
      >
    >
  >
  <TRACK {D4023FCD-D48C-49BE-965F-8DDA401B42B2}
    NAME CLICK
    PEAKCOL 16576
    BEAT -1
    AUTOMODE 0
    VOLPAN 3.98107170553497 0 -1 -1 1
    MUTESOLO 0 2 0
    IPHASE 0
    PLAYOFFS 0 1
    ISBUS 0 0
    BUSCOMP 0 0 0 0 0
    SHOWINMIX 1 0.6667 0.5 1 0.5 0 -1 0
    SEL 0
    REC 0 0 1 0 0 0 0 0
    VU 2
    TRACKHEIGHT 0 0 0 0 0 0
    INQ 0 0 0 0.5 100 0 0 100
    NCHAN 2
    FX 1
    TRACKID {D4023FCD-D48C-49BE-965F-8DDA401B42B2}
    PERF 0
    MIDIOUT -1
    <MIDINOTENAMES
      0 0 "" 0 0
      0 1 "" 0 1
      0 2 "" 0 2
      0 3 "" 0 3
      0 4 "" 0 4
      0 5 "" 0 5
      0 6 "" 0 6
      0 7 "" 0 7
      0 8 "" 0 8
      0 9 "" 0 9
      0 10 "" 0 10
      0 11 "" 0 11
      0 12 "" 0 12
      0 13 "" 0 13
      0 14 "" 0 14
      0 15 "" 0 15
      0 16 "" 0 16
      0 17 "" 0 17
      0 18 "" 0 18
      0 19 "" 0 19
      0 20 "" 0 20
      0 21 "" 0 21
      0 22 "" 0 22
      0 23 "" 0 23
      0 24 "" 0 24
      0 25 "" 0 25
      0 26 "" 0 26
      0 27 "" 0 27
      0 28 "" 0 28
      0 29 "" 0 29
      0 30 "" 0 30
      0 31 "" 0 31
      0 32 "" 0 32
      0 33 "" 0 33
      0 34 "" 0 34
      0 35 "" 0 35
      0 36 Kick 0 36
      0 37 Snare 0 37
      0 38 "Closed Hi-Hat" 0 38
      0 39 "Open Hi-Hat" 0 39
      0 40 Cymbal 0 40
      0 41 "Low Tom" 0 41
      0 42 "Mid Tom" 0 42
      0 43 "High Tom" 0 43
      0 44 "Low Conga" 0 44
      0 45 "Mid Conga" 0 45
      0 46 "High Conga" 0 46
      0 47 "Hand Clap" 0 47
      0 48 Clave 0 48
      0 49 Maraca 0 49
      0 50 Cowbell 0 50
      0 51 "Rim Shot" 0 51
      0 52 "" 0 52
      0 53 "" 0 53
      0 54 "" 0 54
      0 55 "" 0 55
      0 56 "" 0 56
      0 57 "" 0 57
      0 58 "" 0 58
      0 59 "" 0 59
      0 60 "" 0 60
      0 61 "" 0 61
      0 62 "" 0 62
      0 63 "" 0 63
      0 64 "" 0 64
      0 65 "" 0 65
      0 66 "" 0 66
      0 67 "" 0 67
      0 68 "" 0 68
      0 69 "" 0 69
      0 70 "" 0 70
      0 71 "" 0 71
      0 72 "" 0 72
      0 73 "" 0 73
      0 74 "" 0 74
      0 75 "" 0 75
      0 76 "" 0 76
      0 77 "" 0 77
      0 78 "" 0 78
      0 79 "" 0 79
      0 80 "" 0 80
      0 81 "" 0 81
      0 82 "" 0 82
      0 83 "" 0 83
      0 84 "" 0 84
      0 85 "" 0 85
      0 86 "" 0 86
      0 87 "" 0 87
      0 88 "" 0 88
      0 89 "" 0 89
      0 90 "" 0 90
      0 91 "" 0 91
      0 92 "" 0 92
      0 93 "" 0 93
      0 94 "" 0 94
      0 95 "" 0 95
      0 96 "" 0 96
      0 97 "" 0 97
      0 98 "" 0 98
      0 99 "" 0 99
      0 100 "" 0 100
      0 101 "" 0 101
      0 102 "" 0 102
      0 103 "" 0 103
      0 104 "" 0 104
      0 105 "" 0 105
      0 106 "" 0 106
      0 107 "" 0 107
      0 108 "" 0 108
      0 109 "" 0 109
      0 110 "" 0 110
      0 111 "" 0 111
      0 112 "" 0 112
      0 113 "" 0 113
      0 114 "" 0 114
      0 115 "" 0 115
      0 116 "" 0 116
      0 117 "" 0 117
      0 118 "" 0 118
      0 119 "" 0 119
      0 120 "" 0 120
      0 121 "" 0 121
      0 122 "" 0 122
      0 123 "" 0 123
      0 124 "" 0 124
      0 125 "" 0 125
      0 126 "" 0 126
    >
    MAINSEND 1 0
    <FXCHAIN
      WNDRECT 219 98 730 630
      SHOW 0
      LASTSEL 1
      DOCKED 0
      BYPASS 0 0 0
      <VST "VSTi: ReaSamplOmatic5000 (Cockos)" reasamplomatic.dll 0 CLAVE 1920167789<56535472736F6D72656173616D706C6F> ""
        bW9zcu5e7f4AAAAAAgAAAAEAAAAAAAAAAgAAAAAAAABQAQAAAQAAAAAAEAA=
        QzpcVXNlcnNcbmlnZ2FccmVhcGVyLW1lZGlhXGRqLWVybmlhXGRyb3duLW1lLXNsb3dseVw4MDgtQ2xhdmUzLndhdgAAAAAAAADwPwAAAAAAAOA/AAAAAAAA8D8MBoPB
        YDDYPwwGg8FgMNg/mpmZmZmZsT/NzMzMzMzrPwAAAAAAAAAAAAAAAAAAAAD8qfHSTWJAP/yp8dJNYkA/AAAAAAAAAAAAAAAAAAAAAAAAAAAAAAAAAAAAAAAA8D8AAAAA
        AADgPwEAAAAAAAAAAAAAAAAAAAAAAPA/QAAAAFVVVVVVVcU//////wgEAoFAIIA/AAAAAAAA8D8AAAAAAADwPwAAAAAAAAAAAAAAAAAAAAAAAAAAAAAAAAAAAAAAAAAA
        zqQhIRplkD8AAAAAAADwP/yp8dJNYjA/AAAAAAAAAAAAAAAAAAAAAAAAAAAAAAAA
        AAAQAAAA
      >
      FLOATPOS 0 0 0 0
      FXID {AD075788-8A90-440E-B2B5-CEBF9A2C5B16}
      WAK 0 0
      BYPASS 0 0 0
      <VST "VSTi: ReaSamplOmatic5000 (Cockos)" reasamplomatic.dll 0 COWBELL 1920167789<56535472736F6D72656173616D706C6F> ""
        bW9zcu5e7f4AAAAAAgAAAAEAAAAAAAAAAgAAAAAAAABIAQAAAQAAAAAAEAA=
        QzpcVXNlcnNcbmlnZ2FccmVhcGVyLW1lZGlhXGRqLWVybmlhXGFsaXZlXDgwOC1Db3diZWxsNS53YXYAAAAAAAAA8D8AAAAAAADgPwAAAAAAAPA/TSaTyWQy2T9NJpPJ
        ZDLZP5qZmZmZmbE/zczMzMzM6z8AAAAAAAAAAAAAAAAAAAAA/Knx0k1iQD/8qfHSTWJAPwAAAAAAAAAAAAAAAAAAAAAAAAAAAAAAAAAAAAAAAPA/AAAAAAAA4D8BAAAA
        AAAAAAAAAAAAAAAAAADwP0AAAABVVVVVVVXFP/////8IBAKBQCCAPwAAAAAAAPA/AAAAAAAA8D8AAAAAAAAAAAAAAAAAAAAAAAAAAAAAAAAAAAAAAAAAAM6kISEaZZA/
        AAAAAAAA8D/8qfHSTWIwPwAAAAAAAAAAAAAAAAAAAAAAAAAAAAAAAA==
        AAAQAAAA
      >
      FLOATPOS 0 0 0 0
      FXID {70A914DE-174B-42C6-AE48-A7E186AC6DEB}
      WAK 0 0
      BYPASS 1 0 0
      <JS sstillwell/eventhorizon2 ""
        0 -2 0 - - - - - - - - - - - - - - - - - - - - - - - - - - - - - - - - - - - - - - - - - - - - - - - - - - - - - - - - - - - - - 
      >
      FLOATPOS 0 0 0 0
      FXID {C88412AA-818F-4E9A-B32F-D7BED002DE0A}
      WAK 0 0
    >
    <ITEM
      POSITION 0
      SNAPOFFS 0
      LENGTH 310.2644554828014
      LOOP 1
      ALLTAKES 0
      FADEIN 1 0 0 1 0 0 0
      FADEOUT 1 0 0 1 0 0 0
      MUTE 0 0
      SEL 0
      IGUID {C3FFB3A4-2D2D-48F3-BCE5-E982E1309A94}
      IID 218
      NAME "CLICK untitled MIDI item"
      VOLPAN 1 0 1 -1
      SOFFS 2.37623762376238 4
      PLAYRATE 1 1 0 -1 0 0.0025
      CHANMODE 0
      GUID {3CA6E50A-C0FC-41DA-B9C2-96C5E0FB4B6E}
      <SOURCE MIDI
        HASDATA 1 960 QN
        CCINTERP 32
        POOLEDEVTS {27AECE80-24EB-447A-8BB5-821E3579554B}
        E 3840 90 30 7f
        E 0 90 32 7f
        E 0 90 2f 7f
        E 120 80 30 00
        E 0 80 32 00
        E 0 80 2f 00
        E 840 90 30 7f
        E 120 80 30 00
        E 840 90 30 7f
        E 0 90 32 7f
        E 120 80 30 00
        E 0 80 32 00
        E 840 90 30 7f
        E 0 90 2f 7f
        E 120 80 30 00
        E 0 80 2f 00
        E 840 90 30 7f
        E 0 90 32 7f
        E 0 90 2f 7f
        E 120 80 30 00
        E 0 80 32 00
        E 0 80 2f 00
        E 840 90 30 7f
        E 0 90 32 7f
        E 0 90 2f 7f
        E 120 80 30 00
        E 0 80 32 00
        E 0 80 2f 00
        E 840 90 30 7f
        E 0 90 32 7f
        E 0 90 2f 7f
        E 120 80 30 00
        E 0 80 32 00
        E 0 80 2f 00
        E 840 90 30 7f
        E 0 90 32 7f
        E 0 90 2f 7f
        E 120 80 30 00
        E 0 80 32 00
        E 0 80 2f 00
        E 840 90 30 7f
        E 120 80 30 00
        E 840 90 30 7f
        E 120 80 30 00
        E 840 90 30 7f
        E 120 80 30 00
        E 840 90 30 7f
        E 120 80 30 00
        E 840 90 30 7f
        E 120 80 30 00
        E 840 90 30 7f
        E 120 80 30 00
        E 840 90 30 7f
        E 120 80 30 00
        E 840 90 30 7f
        E 120 80 30 00
        E 840 90 30 7f
        E 120 80 30 00
        E 840 90 30 7f
        E 120 80 30 00
        E 840 90 30 7f
        E 120 80 30 00
        E 840 90 30 7f
        E 120 80 30 00
        E 840 90 30 7f
        E 120 80 30 00
        E 840 90 30 7f
        E 120 80 30 00
        E 840 90 30 7f
        E 120 80 30 00
        E 840 90 30 7f
        E 120 80 30 00
        E 840 90 30 7f
        E 120 80 30 00
        E 840 90 30 7f
        E 120 80 30 00
        E 840 90 30 7f
        E 120 80 30 00
        E 840 90 30 7f
        E 120 80 30 00
        E 840 90 30 7f
        E 120 80 30 00
        E 840 90 30 7f
        E 120 80 30 00
        E 840 90 30 7f
        E 120 80 30 00
        E 840 90 30 7f
        E 120 80 30 00
        E 840 90 30 7f
        E 120 80 30 00
        E 840 90 30 7f
        E 120 80 30 00
        E 840 90 30 7f
        E 120 80 30 00
        E 840 90 30 7f
        E 120 80 30 00
        E 840 90 30 7f
        E 120 80 30 00
        E 840 90 30 7f
        E 120 80 30 00
        E 840 90 30 7f
        E 120 80 30 00
        E 840 90 30 7f
        E 120 80 30 00
        E 840 90 30 7f
        E 120 80 30 00
        E 840 90 30 7f
        E 120 80 30 00
        E 840 90 30 7f
        E 120 80 30 00
        E 840 90 30 7f
        E 120 80 30 00
        E 840 90 30 7f
        E 120 80 30 00
        E 840 90 30 7f
        E 120 80 30 00
        E 840 90 30 7f
        E 120 80 30 00
        E 840 90 30 7f
        E 120 80 30 00
        E 840 90 30 7f
        E 120 80 30 00
        E 840 90 30 7f
        E 120 80 30 00
        E 840 90 30 7f
        E 120 80 30 00
        E 840 90 30 7f
        E 120 80 30 00
        E 840 90 30 7f
        E 120 80 30 00
        E 840 90 30 7f
        E 120 80 30 00
        E 840 90 30 7f
        E 120 80 30 00
        E 840 90 30 7f
        E 120 80 30 00
        E 840 90 30 7f
        E 120 80 30 00
        E 840 90 30 7f
        E 120 80 30 00
        E 840 90 30 7f
        E 120 80 30 00
        E 840 90 30 7f
        E 120 80 30 00
        E 840 90 30 7f
        E 120 80 30 00
        E 840 90 30 7f
        E 120 80 30 00
        E 840 90 30 7f
        E 120 80 30 00
        E 840 90 30 7f
        E 120 80 30 00
        E 840 90 30 7f
        E 120 80 30 00
        E 840 90 30 7f
        E 120 80 30 00
        E 840 90 30 7f
        E 120 80 30 00
        E 840 90 30 7f
        E 120 80 30 00
        E 840 90 30 7f
        E 120 80 30 00
        E 840 90 30 7f
        E 120 80 30 00
        E 840 90 30 7f
        E 120 80 30 00
        E 840 90 30 7f
        E 120 80 30 00
        E 840 90 30 7f
        E 120 80 30 00
        E 840 90 30 7f
        E 120 80 30 00
        E 840 90 30 7f
        E 120 80 30 00
        E 840 90 30 7f
        E 120 80 30 00
        E 840 90 30 7f
        E 120 80 30 00
        E 840 90 30 7f
        E 120 80 30 00
        E 840 90 30 7f
        E 120 80 30 00
        E 840 90 30 7f
        E 120 80 30 00
        E 840 90 30 7f
        E 120 80 30 00
        E 840 90 30 7f
        E 120 80 30 00
        E 840 90 30 7f
        E 120 80 30 00
        E 840 90 30 7f
        E 120 80 30 00
        E 840 90 30 7f
        E 120 80 30 00
        E 840 90 30 7f
        E 120 80 30 00
        E 840 90 30 7f
        E 120 80 30 00
        E 840 90 30 7f
        E 120 80 30 00
        E 840 90 30 7f
        E 120 80 30 00
        E 840 90 30 7f
        E 120 80 30 00
        E 840 90 30 7f
        E 120 80 30 00
        E 840 90 30 7f
        E 120 80 30 00
        E 840 90 30 7f
        E 120 80 30 00
        E 840 90 30 7f
        E 120 80 30 00
        E 840 90 30 7f
        E 120 80 30 00
        E 840 90 30 7f
        E 120 80 30 00
        E 840 90 30 7f
        E 120 80 30 00
        E 840 90 30 7f
        E 120 80 30 00
        E 840 90 30 7f
        E 120 80 30 00
        E 840 90 30 7f
        E 120 80 30 00
        E 840 90 30 7f
        E 120 80 30 00
        E 840 90 30 7f
        E 120 80 30 00
        E 840 90 30 7f
        E 120 80 30 00
        E 840 90 30 7f
        E 120 80 30 00
        E 840 90 30 7f
        E 120 80 30 00
        E 840 90 30 7f
        E 120 80 30 00
        E 840 90 30 7f
        E 120 80 30 00
        E 840 90 30 7f
        E 120 80 30 00
        E 840 90 30 7f
        E 120 80 30 00
        E 840 90 30 7f
        E 120 80 30 00
        E 840 90 30 7f
        E 120 80 30 00
        E 840 90 30 7f
        E 120 80 30 00
        E 840 90 30 7f
        E 120 80 30 00
        E 840 90 30 7f
        E 120 80 30 00
        E 840 90 30 7f
        E 120 80 30 00
        E 840 90 30 7f
        E 120 80 30 00
        E 840 90 30 7f
        E 120 80 30 00
        E 840 90 30 7f
        E 120 80 30 00
        E 840 90 30 7f
        E 120 80 30 00
        E 840 90 30 7f
        E 120 80 30 00
        E 840 90 30 7f
        E 120 80 30 00
        E 840 90 30 7f
        E 120 80 30 00
        E 840 90 30 7f
        E 120 80 30 00
        E 840 90 30 7f
        E 120 80 30 00
        E 840 90 30 7f
        E 120 80 30 00
        E 840 90 30 7f
        E 120 80 30 00
        E 840 90 30 7f
        E 120 80 30 00
        E 840 90 30 7f
        E 120 80 30 00
        E 840 90 30 7f
        E 120 80 30 00
        E 840 90 30 7f
        E 120 80 30 00
        E 840 90 30 7f
        E 120 80 30 00
        E 840 90 30 7f
        E 120 80 30 00
        E 840 90 30 7f
        E 120 80 30 00
        E 840 90 30 7f
        E 120 80 30 00
        E 840 90 30 7f
        E 120 80 30 00
        E 840 90 30 7f
        E 120 80 30 00
        E 840 90 30 7f
        E 120 80 30 00
        E 840 90 30 7f
        E 120 80 30 00
        E 840 90 30 7f
        E 120 80 30 00
        E 840 90 30 7f
        E 120 80 30 00
        E 840 90 30 7f
        E 120 80 30 00
        E 840 90 30 7f
        E 120 80 30 00
        E 840 90 30 7f
        E 120 80 30 00
        E 840 90 30 7f
        E 120 80 30 00
        E 840 90 30 7f
        E 120 80 30 00
        E 840 90 30 7f
        E 120 80 30 00
        E 840 90 30 7f
        E 120 80 30 00
        E 840 90 30 7f
        E 120 80 30 00
        E 840 90 30 7f
        E 120 80 30 00
        E 840 90 30 7f
        E 120 80 30 00
        E 840 90 30 7f
        E 120 80 30 00
        E 840 90 30 7f
        E 120 80 30 00
        E 840 90 30 7f
        E 120 80 30 00
        E 840 90 30 7f
        E 120 80 30 00
        E 840 90 30 7f
        E 120 80 30 00
        E 840 90 30 7f
        E 120 80 30 00
        E 840 90 30 7f
        E 120 80 30 00
        E 840 90 30 7f
        E 120 80 30 00
        E 840 90 30 7f
        E 120 80 30 00
        E 840 90 30 7f
        E 120 80 30 00
        E 840 90 30 7f
        E 120 80 30 00
        E 840 90 30 7f
        E 120 80 30 00
        E 840 90 30 7f
        E 120 80 30 00
        E 840 90 30 7f
        E 120 80 30 00
        E 840 90 30 7f
        E 120 80 30 00
        E 840 90 30 7f
        E 120 80 30 00
        E 840 90 30 7f
        E 120 80 30 00
        E 840 90 30 7f
        E 120 80 30 00
        E 840 90 30 7f
        E 120 80 30 00
        E 840 90 30 7f
        E 120 80 30 00
        E 840 90 30 7f
        E 120 80 30 00
        E 840 90 30 7f
        E 120 80 30 00
        E 840 90 30 7f
        E 120 80 30 00
        E 840 90 30 7f
        E 120 80 30 00
        E 840 90 30 7f
        E 120 80 30 00
        E 840 90 30 7f
        E 120 80 30 00
        E 840 90 30 7f
        E 120 80 30 00
        E 840 90 30 7f
        E 120 80 30 00
        E 840 90 30 7f
        E 120 80 30 00
        E 840 90 30 7f
        E 120 80 30 00
        E 840 90 30 7f
        E 120 80 30 00
        E 840 90 30 7f
        E 120 80 30 00
        E 840 90 30 7f
        E 120 80 30 00
        E 840 90 30 7f
        E 120 80 30 00
        E 840 90 30 7f
        E 120 80 30 00
        E 840 90 30 7f
        E 120 80 30 00
        E 840 90 30 7f
        E 120 80 30 00
        E 840 90 30 7f
        E 120 80 30 00
        E 840 90 30 7f
        E 120 80 30 00
        E 840 90 30 7f
        E 120 80 30 00
        E 840 90 30 7f
        E 120 80 30 00
        E 840 90 30 7f
        E 120 80 30 00
        E 840 90 30 7f
        E 120 80 30 00
        E 840 90 30 7f
        E 120 80 30 00
        E 840 90 30 7f
        E 120 80 30 00
        E 840 90 30 7f
        E 120 80 30 00
        E 840 90 30 7f
        E 120 80 30 00
        E 840 90 30 7f
        E 120 80 30 00
        E 840 90 30 7f
        E 120 80 30 00
        E 840 90 30 7f
        E 120 80 30 00
        E 840 90 30 7f
        E 120 80 30 00
        E 840 90 30 7f
        E 120 80 30 00
        E 840 90 30 7f
        E 120 80 30 00
        E 840 90 30 7f
        E 120 80 30 00
        E 840 90 30 7f
        E 120 80 30 00
        E 840 90 30 7f
        E 120 80 30 00
        E 840 90 30 7f
        E 120 80 30 00
        E 840 90 30 7f
        E 120 80 30 00
        E 840 90 30 7f
        E 120 80 30 00
        E 840 90 30 7f
        E 120 80 30 00
        E 840 90 30 7f
        E 120 80 30 00
        E 840 90 30 7f
        E 120 80 30 00
        E 840 90 30 7f
        E 120 80 30 00
        E 840 90 30 7f
        E 120 80 30 00
        E 840 90 30 7f
        E 120 80 30 00
        E 840 90 30 7f
        E 120 80 30 00
        E 840 90 30 7f
        E 120 80 30 00
        E 840 90 30 7f
        E 120 80 30 00
        E 840 90 30 7f
        E 120 80 30 00
        E 840 90 30 7f
        E 120 80 30 00
        E 840 90 30 7f
        E 120 80 30 00
        E 840 90 30 7f
        E 120 80 30 00
        E 840 90 30 7f
        E 120 80 30 00
        E 840 90 30 7f
        E 120 80 30 00
        E 840 90 30 7f
        E 120 80 30 00
        E 840 90 30 7f
        E 120 80 30 00
        E 840 90 30 7f
        E 120 80 30 00
        E 840 90 30 7f
        E 120 80 30 00
        E 840 90 30 7f
        E 120 80 30 00
        E 840 90 30 7f
        E 120 80 30 00
        E 840 90 30 7f
        E 120 80 30 00
        E 840 90 30 7f
        E 120 80 30 00
        E 840 90 30 7f
        E 120 80 30 00
        E 840 90 30 7f
        E 120 80 30 00
        E 840 90 30 7f
        E 120 80 30 00
        E 840 90 30 7f
        E 120 80 30 00
        E 840 90 30 7f
        E 120 80 30 00
        E 840 90 30 7f
        E 120 80 30 00
        E 840 90 30 7f
        E 120 80 30 00
        E 840 90 30 7f
        E 120 80 30 00
        E 840 90 30 7f
        E 120 80 30 00
        E 840 90 30 7f
        E 120 80 30 00
        E 840 90 30 7f
        E 120 80 30 00
        E 840 90 30 7f
        E 120 80 30 00
        E 840 90 30 7f
        E 120 80 30 00
        E 840 90 30 7f
        E 120 80 30 00
        E 840 90 30 7f
        E 120 80 30 00
        E 840 90 30 7f
        E 120 80 30 00
        E 840 90 30 7f
        E 120 80 30 00
        E 840 90 30 7f
        E 120 80 30 00
        E 840 90 30 7f
        E 120 80 30 00
        E 840 90 30 7f
        E 120 80 30 00
        E 840 90 30 7f
        E 120 80 30 00
        E 840 90 30 7f
        E 120 80 30 00
        E 840 90 30 7f
        E 120 80 30 00
        E 840 90 30 7f
        E 120 80 30 00
        E 840 90 30 7f
        E 120 80 30 00
        E 840 90 30 7f
        E 120 80 30 00
        E 840 90 30 7f
        E 120 80 30 00
        E 840 90 30 7f
        E 120 80 30 00
        E 840 90 30 7f
        E 120 80 30 00
        E 840 90 30 7f
        E 120 80 30 00
        E 840 90 30 7f
        E 120 80 30 00
        E 840 90 30 7f
        E 120 80 30 00
        E 840 90 30 7f
        E 120 80 30 00
        E 840 90 30 7f
        E 120 80 30 00
        E 840 90 30 7f
        E 120 80 30 00
        E 840 90 30 7f
        E 120 80 30 00
        E 840 90 30 7f
        E 120 80 30 00
        E 840 90 30 7f
        E 120 80 30 00
        E 840 90 30 7f
        E 120 80 30 00
        E 840 90 30 7f
        E 120 80 30 00
        E 840 90 30 7f
        E 120 80 30 00
        E 840 90 30 7f
        E 120 80 30 00
        E 840 90 30 7f
        E 120 80 30 00
        E 840 90 30 7f
        E 120 80 30 00
        E 840 90 30 7f
        E 120 80 30 00
        E 840 90 30 7f
        E 120 80 30 00
        E 840 90 30 7f
        E 120 80 30 00
        E 840 90 30 7f
        E 120 80 30 00
        E 840 90 30 7f
        E 120 80 30 00
        E 840 90 30 7f
        E 120 80 30 00
        E 840 90 30 7f
        E 120 80 30 00
        E 840 90 30 7f
        E 120 80 30 00
        E 840 90 30 7f
        E 120 80 30 00
        E 840 90 30 7f
        E 120 80 30 00
        E 840 90 30 7f
        E 120 80 30 00
        E 840 90 30 7f
        E 120 80 30 00
        E 840 90 30 7f
        E 120 80 30 00
        E 840 90 30 7f
        E 120 80 30 00
        E 840 90 30 7f
        E 120 80 30 00
        E 840 90 30 7f
        E 120 80 30 00
        E 840 90 30 7f
        E 120 80 30 00
        E 840 90 30 7f
        E 120 80 30 00
        E 840 90 30 7f
        E 120 80 30 00
        E 840 90 30 7f
        E 120 80 30 00
        E 840 90 30 7f
        E 120 80 30 00
        E 840 90 30 7f
        E 120 80 30 00
        E 840 90 30 7f
        E 120 80 30 00
        E 840 90 30 7f
        E 120 80 30 00
        E 840 90 30 7f
        E 120 80 30 00
        E 840 90 30 7f
        E 120 80 30 00
        E 840 90 30 7f
        E 120 80 30 00
        E 840 90 30 7f
        E 120 80 30 00
        E 840 90 30 7f
        E 120 80 30 00
        E 840 90 30 7f
        E 120 80 30 00
        E 840 90 30 7f
        E 120 80 30 00
        E 840 90 30 7f
        E 120 80 30 00
        E 840 90 30 7f
        E 120 80 30 00
        E 840 90 30 7f
        E 120 80 30 00
        E 840 90 30 7f
        E 120 80 30 00
        E 840 90 30 7f
        E 120 80 30 00
        E 840 90 30 7f
        E 120 80 30 00
        E 840 90 30 7f
        E 120 80 30 00
        E 840 90 30 7f
        E 120 80 30 00
        E 840 90 30 7f
        E 120 80 30 00
        E 840 90 30 7f
        E 120 80 30 00
        E 840 90 30 7f
        E 120 80 30 00
        E 840 90 30 7f
        E 120 80 30 00
        E 840 90 30 7f
        E 120 80 30 00
        E 840 90 30 7f
        E 120 80 30 00
        E 840 90 30 7f
        E 120 80 30 00
        E 840 90 30 7f
        E 120 80 30 00
        E 840 90 30 7f
        E 120 80 30 00
        E 840 90 30 7f
        E 120 80 30 00
        E 840 90 30 7f
        E 120 80 30 00
        E 840 90 30 7f
        E 120 80 30 00
        E 840 90 30 7f
        E 120 80 30 00
        E 840 90 30 7f
        E 120 80 30 00
        E 840 90 30 7f
        E 120 80 30 00
        E 840 90 30 7f
        E 120 80 30 00
        E 840 90 30 7f
        E 120 80 30 00
        E 840 90 30 7f
        E 120 80 30 00
        E 840 90 30 7f
        E 120 80 30 00
        E 840 90 30 7f
        E 120 80 30 00
        E 840 90 30 7f
        E 120 80 30 00
        E 840 90 30 7f
        E 120 80 30 00
        E 840 90 30 7f
        E 120 80 30 00
        E 840 90 30 7f
        E 120 80 30 00
        E 840 90 30 7f
        E 120 80 30 00
        E 840 90 30 7f
        E 120 80 30 00
        E 840 90 30 7f
        E 120 80 30 00
        E 840 90 30 7f
        E 120 80 30 00
        E 840 90 30 7f
        E 120 80 30 00
        E 840 90 30 7f
        E 120 80 30 00
        E 840 90 30 7f
        E 120 80 30 00
        E 840 90 30 7f
        E 120 80 30 00
        E 840 90 30 7f
        E 120 80 30 00
        E 840 90 30 7f
        E 120 80 30 00
        E 840 90 30 7f
        E 120 80 30 00
        E 840 90 30 7f
        E 120 80 30 00
        E 840 90 30 7f
        E 120 80 30 00
        E 840 90 30 7f
        E 120 80 30 00
        E 840 90 30 7f
        E 120 80 30 00
        E 840 90 30 7f
        E 120 80 30 00
        E 840 90 30 7f
        E 120 80 30 00
        E 840 90 30 7f
        E 120 80 30 00
        E 840 90 30 7f
        E 120 80 30 00
        E 840 90 30 7f
        E 120 80 30 00
        E 840 90 30 7f
        E 120 80 30 00
        E 840 90 30 7f
        E 120 80 30 00
        E 840 90 30 7f
        E 120 80 30 00
        E 840 90 30 7f
        E 120 80 30 00
        E 840 90 30 7f
        E 120 80 30 00
        E 840 90 30 7f
        E 120 80 30 00
        E 840 90 30 7f
        E 120 80 30 00
        E 840 90 30 7f
        E 120 80 30 00
        E 840 90 30 7f
        E 120 80 30 00
        E 840 90 30 7f
        E 120 80 30 00
        E 840 90 30 7f
        E 120 80 30 00
        E 840 90 30 7f
        E 120 80 30 00
        E 840 90 30 7f
        E 120 80 30 00
        E 840 90 30 7f
        E 120 80 30 00
        E 840 90 30 7f
        E 120 80 30 00
        E 840 90 30 7f
        E 120 80 30 00
        E 840 90 30 7f
        E 120 80 30 00
        E 840 90 30 7f
        E 120 80 30 00
        E 840 90 30 7f
        E 120 80 30 00
        E 840 90 30 7f
        E 120 80 30 00
        E 840 90 30 7f
        E 120 80 30 00
        E 840 90 30 7f
        E 120 80 30 00
        E 840 90 30 7f
        E 120 80 30 00
        E 840 90 30 7f
        E 120 80 30 00
        E 840 90 30 7f
        E 120 80 30 00
        E 840 90 30 7f
        E 120 80 30 00
        E 840 90 30 7f
        E 120 80 30 00
        E 840 90 30 7f
        E 120 80 30 00
        E 840 90 30 7f
        E 120 80 30 00
        E 840 90 30 7f
        E 120 80 30 00
        E 840 90 30 7f
        E 120 80 30 00
        E 840 90 30 7f
        E 120 80 30 00
        E 840 90 30 7f
        E 120 80 30 00
        E 840 90 30 7f
        E 120 80 30 00
        E 840 90 30 7f
        E 120 80 30 00
        E 840 90 30 7f
        E 120 80 30 00
        E 840 90 30 7f
        E 120 80 30 00
        E 840 90 30 7f
        E 120 80 30 00
        E 840 90 30 7f
        E 120 80 30 00
        E 840 90 30 7f
        E 120 80 30 00
        E 840 90 30 7f
        E 120 80 30 00
        E 840 90 30 7f
        E 120 80 30 00
        E 840 90 30 7f
        E 120 80 30 00
        E 840 90 30 7f
        E 120 80 30 00
        E 840 90 30 7f
        E 120 80 30 00
        E 840 90 30 7f
        E 120 80 30 00
        E 840 90 30 7f
        E 120 80 30 00
        E 840 90 30 7f
        E 120 80 30 00
        E 840 90 30 7f
        E 120 80 30 00
        E 840 90 30 7f
        E 120 80 30 00
        E 840 90 30 7f
        E 120 80 30 00
        E 840 90 30 7f
        E 120 80 30 00
        E 840 90 30 7f
        E 120 80 30 00
        E 840 90 30 7f
        E 120 80 30 00
        E 840 90 30 7f
        E 120 80 30 00
        E 840 90 30 7f
        E 120 80 30 00
        E 840 90 30 7f
        E 120 80 30 00
        E 840 90 30 7f
        E 120 80 30 00
        E 840 90 30 7f
        E 120 80 30 00
        E 840 90 30 7f
        E 120 80 30 00
        E 840 90 30 7f
        E 120 80 30 00
        E 840 90 30 7f
        E 120 80 30 00
        E 840 90 30 7f
        E 120 80 30 00
        E 840 90 30 7f
        E 120 80 30 00
        E 840 90 30 7f
        E 120 80 30 00
        E 840 90 30 7f
        E 120 80 30 00
        E 840 90 30 7f
        E 120 80 30 00
        E 840 90 30 7f
        E 120 80 30 00
        E 840 90 30 7f
        E 120 80 30 00
        E 840 90 30 7f
        E 120 80 30 00
        E 840 90 30 7f
        E 120 80 30 00
        E 840 90 30 7f
        E 120 80 30 00
        E 840 90 30 7f
        E 120 80 30 00
        E 840 90 30 7f
        E 120 80 30 00
        E 840 90 30 7f
        E 120 80 30 00
        E 840 90 30 7f
        E 120 80 30 00
        E 840 90 30 7f
        E 120 80 30 00
        E 840 90 30 7f
        E 120 80 30 00
        E 840 90 30 7f
        E 120 80 30 00
        E 840 90 30 7f
        E 120 80 30 00
        E 840 90 30 7f
        E 120 80 30 00
        E 840 90 30 7f
        E 120 80 30 00
        E 840 90 30 7f
        E 120 80 30 00
        E 840 90 30 7f
        E 120 80 30 00
        E 840 90 30 7f
        E 120 80 30 00
        E 840 90 30 7f
        E 120 80 30 00
        E 840 90 30 7f
        E 120 80 30 00
        E 840 90 30 7f
        E 120 80 30 00
        E 840 90 30 7f
        E 120 80 30 00
        E 840 90 30 7f
        E 120 80 30 00
        E 840 90 30 7f
        E 120 80 30 00
        E 840 90 30 7f
        E 120 80 30 00
        E 840 90 30 7f
        E 120 80 30 00
        E 840 90 30 7f
        E 120 80 30 00
        E 840 90 30 7f
        E 120 80 30 00
        E 840 90 30 7f
        E 120 80 30 00
        E 840 90 30 7f
        E 120 80 30 00
        E 840 90 30 7f
        E 120 80 30 00
        E 840 90 30 7f
        E 120 80 30 00
        E 840 90 30 7f
        E 120 80 30 00
        E 840 90 30 7f
        E 120 80 30 00
        E 840 90 30 7f
        E 120 80 30 00
        E 840 90 30 7f
        E 120 80 30 00
        E 840 90 30 7f
        E 120 80 30 00
        E 840 90 30 7f
        E 120 80 30 00
        E 840 90 30 7f
        E 120 80 30 00
        E 840 90 30 7f
        E 120 80 30 00
        E 840 90 30 7f
        E 120 80 30 00
        E 840 90 30 7f
        E 120 80 30 00
        E 840 90 30 7f
        E 120 80 30 00
        E 840 90 30 7f
        E 120 80 30 00
        E 840 90 30 7f
        E 120 80 30 00
        E 840 90 30 7f
        E 120 80 30 00
        E 840 90 30 7f
        E 120 80 30 00
        E 840 90 30 7f
        E 120 80 30 00
        E 840 90 30 7f
        E 120 80 30 00
        E 840 90 30 7f
        E 120 80 30 00
        E 840 90 30 7f
        E 120 80 30 00
        E 840 90 30 7f
        E 120 80 30 00
        E 840 90 30 7f
        E 120 80 30 00
        E 840 90 30 7f
        E 120 80 30 00
        E 840 90 30 7f
        E 120 80 30 00
        E 840 90 30 7f
        E 120 80 30 00
        E 840 90 30 7f
        E 120 80 30 00
        E 840 90 30 7f
        E 120 80 30 00
        E 840 90 30 7f
        E 120 80 30 00
        E 840 90 30 7f
        E 120 80 30 00
        E 840 90 30 7f
        E 120 80 30 00
        E 840 90 30 7f
        E 120 80 30 00
        E 840 90 30 7f
        E 120 80 30 00
        E 840 90 30 7f
        E 120 80 30 00
        E 840 90 30 7f
        E 120 80 30 00
        e 840 90 30 7f
        e 120 80 30 00
        E 840 90 30 7f
        E 120 80 30 00
        E 840 90 30 7f
        E 120 80 30 00
        E 840 90 30 7f
        E 120 80 30 00
        E 840 90 30 7f
        E 120 80 30 00
        E 840 90 30 7f
        E 120 80 30 00
        E 840 90 30 7f
        E 120 80 30 00
        E 840 90 30 7f
        E 120 80 30 00
        E 840 90 30 7f
        E 120 80 30 00
        E 840 90 30 7f
        E 120 80 30 00
        E 840 90 30 7f
        E 120 80 30 00
        E 840 90 30 7f
        E 120 80 30 00
        E 840 90 30 7f
        E 120 80 30 00
        E 840 90 30 7f
        E 120 80 30 00
        E 840 90 30 7f
        E 120 80 30 00
        E 840 90 30 7f
        E 120 80 30 00
        E 840 90 30 7f
        E 120 80 30 00
        E 840 90 30 7f
        E 120 80 30 00
        E 840 90 30 7f
        E 120 80 30 00
        E 840 90 30 7f
        E 120 80 30 00
        E 840 90 30 7f
        E 120 80 30 00
        E 840 90 30 7f
        E 120 80 30 00
        E 840 90 30 7f
        E 120 80 30 00
        E 840 90 30 7f
        E 120 80 30 00
        E 840 90 30 7f
        E 120 80 30 00
        E 840 90 30 7f
        E 120 80 30 00
        E 840 90 30 7f
        E 120 80 30 00
        E 840 90 30 7f
        E 120 80 30 00
        E 840 90 30 7f
        E 120 80 30 00
        E 840 90 30 7f
        E 120 80 30 00
        E 840 90 30 7f
        E 120 80 30 00
        E 840 90 30 7f
        E 120 80 30 00
        E 840 90 30 7f
        E 120 80 30 00
        E 840 90 30 7f
        E 120 80 30 00
        E 840 90 30 7f
        E 120 80 30 00
        E 840 90 30 7f
        E 120 80 30 00
        E 840 90 30 7f
        E 120 80 30 00
        E 840 90 30 7f
        E 120 80 30 00
        E 840 90 30 7f
        E 120 80 30 00
        E 840 90 30 7f
        E 120 80 30 00
        E 840 90 30 7f
        E 120 80 30 00
        E 840 b0 7b 00
        CCINTERP 32
        CHASE_CC_TAKEOFFS 1
        GUID {F3383F87-69A6-4F94-B676-8272D98134A3}
        IGNTEMPO 0 120 4 4
        SRCCOLOR 191
        VELLANE -1 100 0
        CFGEDITVIEW 0 0.013154 75 13 0 15 76 0 0 0.5
        KEYSNAP 0
        TRACKSEL 0
        EVTFILTER 0 -1 -1 -1 -1 0 0 0 0 -1 -1 -1 -1 0 -1 0 -1 -1
        CFGEDIT 1 1 0 1 0 9 1 1 1 1 1 1 22 102 1270 1005 1 0 0 2 0 0 0 1 0 0.5 0 0 1 64
      >
    >
    <ITEM
      POSITION 310.26445548285341
      SNAPOFFS 0
      LENGTH 16.70089109193259
      LOOP 1
      ALLTAKES 0
      FADEIN 1 0 0 1 0 0 0
      FADEOUT 1 0 0 1 0 0 0
      MUTE 0 0
      SEL 0
      IGUID {5E926918-5F4E-4612-84F1-A48EF732CF17}
      IID 222
      NAME "CLICK untitled MIDI item"
      VOLPAN 1 0 1 -1
      SOFFS 0 0
      PLAYRATE 1 1 0 -1 0 0.0025
      CHANMODE 0
      GUID {A11905B9-20A0-40D0-B7D0-179DD824BC8F}
      <SOURCE MIDI
        HASDATA 1 960 QN
        CCINTERP 32
        POOLEDEVTS {907DB56C-C791-49C3-A804-166A26987472}
        E 0 90 30 7f
        E 120 80 30 00
        E 840 90 30 7f
        E 120 80 30 00
        E 840 90 30 7f
        E 120 80 30 00
        E 840 90 30 7f
        E 120 80 30 00
        E 840 90 30 7f
        E 120 80 30 00
        E 840 90 30 7f
        E 120 80 30 00
        E 840 90 30 7f
        E 120 80 30 00
        E 840 90 30 7f
        E 120 80 30 00
        E 840 90 30 7f
        E 120 80 30 00
        E 840 90 30 7f
        E 120 80 30 00
        E 840 90 30 7f
        E 120 80 30 00
        E 840 90 30 7f
        E 120 80 30 00
        E 840 90 30 7f
        E 120 80 30 00
        E 840 90 30 7f
        E 120 80 30 00
        E 840 90 30 7f
        E 120 80 30 00
        E 840 90 30 7f
        E 120 80 30 00
        E 840 90 30 7f
        E 120 80 30 00
        E 840 90 30 7f
        E 120 80 30 00
        E 840 90 30 7f
        E 120 80 30 00
        E 840 90 30 7f
        E 120 80 30 00
        E 840 90 30 7f
        E 120 80 30 00
        E 840 90 30 7f
        E 120 80 30 00
        E 840 90 30 7f
        E 120 80 30 00
        E 840 90 30 7f
        E 120 80 30 00
        E 840 90 30 7f
        E 120 80 30 00
        E 840 90 30 7f
        E 120 80 30 00
        E 840 90 30 7f
        E 120 80 30 00
        E 840 90 30 7f
        E 120 80 30 00
        E 840 b0 7b 00
        CCINTERP 32
        CHASE_CC_TAKEOFFS 1
        GUID {4D42C962-9BEB-4588-90C6-3328785FD962}
        IGNTEMPO 0 120 4 4
        SRCCOLOR 193
        VELLANE -1 100 0
        CFGEDITVIEW 0 0.013154 75 13 0 -1 0 0 0 0.5
        KEYSNAP 0
        TRACKSEL 0
        EVTFILTER 0 -1 -1 -1 -1 0 0 0 0 -1 -1 -1 -1 0 -1 0 -1 -1
        CFGEDIT 1 1 0 1 0 9 1 1 1 1 1 1 22 102 1270 1005 1 0 0 2 0 0 0 1 0 0.5 0 0 1 64
      >
    >
  >
  <TRACK {7C509381-2B2E-4F56-B46B-832489CBDB89}
    NAME PARTS
    PEAKCOL 16576
    BEAT -1
    AUTOMODE 0
    VOLPAN 1 0 -1 -1 1
    MUTESOLO 0 0 0
    IPHASE 0
    PLAYOFFS 0 1
    ISBUS 1 1
    BUSCOMP 0 0 0 0 0
    SHOWINMIX 1 0.6667 0.5 1 0.5 -1 -1 -1
    SEL 0
    REC 0 0 1 0 0 0 0 0
    VU 2
    TRACKHEIGHT 0 0 0 0 0 0
    INQ 0 0 0 0.5 100 0 0 100
    NCHAN 2
    FX 1
    TRACKID {7C509381-2B2E-4F56-B46B-832489CBDB89}
    PERF 0
    MIDIOUT -1
    MAINSEND 1 0
  >
  <TRACK {DA0B6CE7-70EF-4CA4-8626-9C7C0909DE4E}
    NAME BASS
    PEAKCOL 16576
    BEAT -1
    AUTOMODE 0
    VOLPAN 1 0 -1 -1 1
    MUTESOLO 0 0 0
    IPHASE 0
    PLAYOFFS 0 1
    ISBUS 0 0
    BUSCOMP 0 0 0 0 0
    SHOWINMIX 1 0.6667 0.5 1 0.5 0 -1 0
    SEL 0
    REC 0 0 1 0 0 0 0 0
    VU 2
    TRACKHEIGHT 0 0 0 0 0 0
    INQ 0 0 0 0.5 100 0 0 100
    NCHAN 2
    FX 1
    TRACKID {DA0B6CE7-70EF-4CA4-8626-9C7C0909DE4E}
    PERF 0
    MIDIOUT -1
    MAINSEND 1 0
    <ITEM
      POSITION 4.28000000043598
      SNAPOFFS 0
      LENGTH 233.616
      LOOP 1
      ALLTAKES 0
      FADEIN 1 0.01 0 1 0 0 0
      FADEOUT 1 0.01 0 1 0 0 0
      MUTE 0 0
      SEL 0
      IGUID {724B64A5-FA12-4E25-B89B-364F2BB2A7D8}
      IID 1
      NAME "drown-me-slowly-bass-E minor-103bpm-442hz.m4a"
      VOLPAN 1 0 1 -1
      SOFFS 0
      PLAYRATE 1 1 0 -1 0 0.0025
      CHANMODE 0
      GUID {BDF1C2BF-84C9-4662-B444-9A7E5C034BFC}
      <SOURCE VIDEO
        FLIP 0 1
        FILE "audio-in\drown-me-slowly-bass-E minor-103bpm-442hz.m4a"
      >
    >
  >
  <TRACK {9035ED76-0F73-4495-8361-40DDA496C7E4}
    NAME METRO
    PEAKCOL 16576
    BEAT -1
    AUTOMODE 0
    VOLPAN 1 0 -1 -1 1
    MUTESOLO 1 0 0
    IPHASE 0
    PLAYOFFS 0 1
    ISBUS 0 0
    BUSCOMP 0 0 0 0 0
    SHOWINMIX 1 0.6667 0.5 1 0.5 0 -1 0
    SEL 0
    REC 0 0 1 0 0 0 0 0
    VU 2
    TRACKHEIGHT 0 0 0 0 0 0
    INQ 0 0 0 0.5 100 0 0 100
    NCHAN 2
    FX 1
    TRACKID {9035ED76-0F73-4495-8361-40DDA496C7E4}
    PERF 0
    MIDIOUT -1
    MAINSEND 1 0
    <ITEM
      POSITION 4.28000000043598
      SNAPOFFS 0
      LENGTH 60
      LOOP 1
      ALLTAKES 0
      FADEIN 1 0.01 0 1 0 0 0
      FADEOUT 1 0.01 0 1 0 0 0
      MUTE 0 0
      SEL 0
      IGUID {441319A3-35E1-473E-A382-6EF771228507}
      IID 3
      NAME "drown-me-slowly-metronome-E minor-103bpm-442hz.m4a"
      VOLPAN 1 0 1 -1
      SOFFS 0
      PLAYRATE 1 1 0 -1 0 0.0025
      CHANMODE 0
      GUID {AB01389E-99C4-4507-9E43-A337381DA666}
      <SOURCE VIDEO
        FLIP 0 1
        FILE "audio-in\drown-me-slowly-metronome-E minor-103bpm-442hz.m4a"
      >
    >
  >
  <TRACK {C9E1B172-4A64-496C-A514-C5CB02CC89A8}
    NAME GUIT
    PEAKCOL 16576
    BEAT -1
    AUTOMODE 0
    VOLPAN 1 0 -1 -1 1
    MUTESOLO 0 0 0
    IPHASE 0
    PLAYOFFS 0 1
    ISBUS 0 0
    BUSCOMP 0 0 0 0 0
    SHOWINMIX 1 0.6667 0.5 1 0.5 0 -1 0
    SEL 0
    REC 0 0 1 0 0 0 0 0
    VU 2
    TRACKHEIGHT 0 0 0 0 0 0
    INQ 0 0 0 0.5 100 0 0 100
    NCHAN 2
    FX 1
    TRACKID {C9E1B172-4A64-496C-A514-C5CB02CC89A8}
    PERF 0
    MIDIOUT -1
    MAINSEND 1 0
    <ITEM
      POSITION 4.28000000043598
      SNAPOFFS 0
      LENGTH 233.616
      LOOP 1
      ALLTAKES 0
      FADEIN 1 0.01 0 1 0 0 0
      FADEOUT 1 0.01 0 1 0 0 0
      MUTE 0 0
      SEL 0
      IGUID {8D3C9382-BD6D-4B88-BF42-CB1FB324069D}
      IID 4
      NAME "drown-me-slowly-other-E minor-103bpm-442hz.m4a"
      VOLPAN 1 0 1 -1
      SOFFS 0
      PLAYRATE 1 1 0 -1 0 0.0025
      CHANMODE 0
      GUID {8F0DC135-631B-448B-AABC-0D55BE0DC1B7}
      <SOURCE VIDEO
        FLIP 0 1
        FILE "audio-in\drown-me-slowly-other-E minor-103bpm-442hz.m4a"
      >
    >
  >
  <TRACK {1726CBC6-3745-44C3-995A-9F193C04FB1B}
    NAME VOX
    PEAKCOL 16576
    BEAT -1
    AUTOMODE 0
    VOLPAN 1 0 -1 -1 1
    MUTESOLO 0 0 0
    IPHASE 0
    PLAYOFFS 0 1
    ISBUS 0 0
    BUSCOMP 0 0 0 0 0
    SHOWINMIX 1 0.6667 0.5 1 0.5 0 -1 0
    SEL 0
    REC 0 0 1 0 0 0 0 0
    VU 2
    TRACKHEIGHT 0 0 0 0 0 0
    INQ 0 0 0 0.5 100 0 0 100
    NCHAN 2
    FX 1
    TRACKID {1726CBC6-3745-44C3-995A-9F193C04FB1B}
    PERF 0
    MIDIOUT -1
    MAINSEND 1 0
    <ITEM
      POSITION 4.28000000043598
      SNAPOFFS 0
      LENGTH 233.616
      LOOP 1
      ALLTAKES 0
      FADEIN 1 0.01 0 1 0 0 0
      FADEOUT 1 0.01 0 1 0 0 0
      MUTE 0 0
      SEL 0
      IGUID {6FF0393E-1BD0-4D20-9B50-B7F44B47E880}
      IID 5
      NAME "drown-me-slowly-vocals-E minor-103bpm-442hz.m4a"
      VOLPAN 1 0 1 -1
      SOFFS 0
      PLAYRATE 1 1 0 -1 0 0.0025
      CHANMODE 0
      GUID {5D90072E-CD30-4647-BA0B-CAF41E32B7CB}
      <SOURCE VIDEO
        FLIP 0 1
        FILE "audio-in\drown-me-slowly-vocals-E minor-103bpm-442hz.m4a"
      >
    >
  >
>
